<?xml version="1.0" encoding="UTF-8" standalone="no"?>
<svg
   xmlns:dc="http://purl.org/dc/elements/1.1/"
   xmlns:cc="http://creativecommons.org/ns#"
   xmlns:rdf="http://www.w3.org/1999/02/22-rdf-syntax-ns#"
   xmlns:svg="http://www.w3.org/2000/svg"
   xmlns="http://www.w3.org/2000/svg"
   xmlns:sodipodi="http://sodipodi.sourceforge.net/DTD/sodipodi-0.dtd"
   xmlns:inkscape="http://www.inkscape.org/namespaces/inkscape"
   inkscape:version="1.0 (4035a4fb49, 2020-05-01)"
   sodipodi:docname="linkedin.svg"
   xml:space="preserve"
   width="67px"
   viewBox="0 0 67 67"
   version="1.1"
   style="enable-background:new 0 0 67 67;"
   id="Layer_1"
   height="67px"><metadata
     id="metadata9"><rdf:RDF><cc:Work
         rdf:about=""><dc:format>image/svg+xml</dc:format><dc:type
           rdf:resource="http://purl.org/dc/dcmitype/StillImage" /><dc:title></dc:title></cc:Work></rdf:RDF></metadata><defs
     id="defs7" /><sodipodi:namedview
     inkscape:current-layer="Layer_1"
     inkscape:window-maximized="0"
     inkscape:window-y="23"
     inkscape:window-x="26"
     inkscape:cy="37.891205"
     inkscape:cx="39.596727"
     inkscape:zoom="4.3672587"
     showgrid="false"
     id="namedview5"
     inkscape:window-height="1016"
     inkscape:window-width="960"
     inkscape:pageshadow="2"
     inkscape:pageopacity="0"
     guidetolerance="10"
     gridtolerance="10"
     objecttolerance="10"
     borderopacity="1"
     bordercolor="#666666"
     pagecolor="#ffffff" /><path
     sodipodi:nodetypes="csscccccscsscccscssssccccc"
     id="path2"
     style="clip-rule:evenodd;fill:#000909;fill-opacity:1;fill-rule:evenodd;stroke-width:1.894;stroke-miterlimit:4;stroke-dasharray:none;stroke:#000000;stroke-opacity:1"
     d="M 63.5,62.173044 V 39.987023 c 0,-11.88672 -6.345899,-17.418071 -14.805834,-17.418071 -6.827051,0 -9.886343,3.756393 -11.591211,6.391362 V 23.478215 H 24.240671 c 0.170486,3.63137 0,38.694829 0,38.694829 H 37.102955 V 40.56289 c 0,-1.153627 0.08335,-2.309149 0.424323,-3.135063 0.928206,-2.311044 3.044137,-4.703543 6.595946,-4.703543 4.656185,0 6.516386,3.548021 6.516386,8.747869 V 62.174938 H 63.5 Z M 10.690756,18.196912 c 4.483804,0 7.277893,-2.974048 7.277893,-6.688767 -0.08335,-3.7942785 -2.794089,-6.6830835 -7.19265,-6.6830835 -4.39856,0 -7.275999,2.88691 -7.275999,6.6830835 0,3.714719 2.792195,6.688767 7.109301,6.688767 z m 6.431142,43.976132 V 23.478215 H 4.261508 v 38.694829 z" /></svg>
